<svg xmlns="http://www.w3.org/2000/svg" viewBox="0 0 800 600" width="800" height="600">
  <defs>
    <linearGradient id="night" x1="0" y1="0" x2="0" y2="1">
      <stop offset="0%" stop-color="#0a0a0a"/>
      <stop offset="100%" stop-color="#1c1c1c"/>
    </linearGradient>
  </defs>
  <rect width="800" height="600" fill="url(#night)"/>
  <!-- skyline -->
  <g fill="#252525" stroke="#10b981" stroke-width="1.5">
    <rect x="60" y="260" width="90" height="340"/>
    <rect x="180" y="180" width="110" height="420"/>
    <rect x="320" y="300" width="80" height="300"/>
    <rect x="430" y="140" width="120" height="460"/>
    <rect x="580" y="240" width="95" height="360"/>
    <rect x="700" y="330" width="70" height="270"/>
  </g>
  <!-- ventanas -->
  <g fill="#34d399" opacity="0.8">
    <rect x="200" y="210" width="12" height="12"/><rect x="230" y="210" width="12" height="12"/>
    <rect x="200" y="245" width="12" height="12"/><rect x="260" y="245" width="12" height="12"/>
    <rect x="450" y="170" width="12" height="12"/><rect x="480" y="170" width="12" height="12"/>
    <rect x="510" y="205" width="12" height="12"/><rect x="450" y="240" width="12" height="12"/>
    <rect x="600" y="270" width="12" height="12"/><rect x="630" y="305" width="12" height="12"/>
    <rect x="80" y="290" width="12" height="12"/><rect x="110" y="325" width="12" height="12"/>
  </g>
  <circle cx="680" cy="80" r="35" fill="none" stroke="#FBFBFF" stroke-width="2" opacity="0.5"/>
  <text x="400" y="575" text-anchor="middle" font-family="'Segoe UI', Arial, sans-serif" font-size="18" fill="#34d399" letter-spacing="3" opacity="0.7">PLACEHOLDER — YOUR PHOTO HERE</text>
</svg>
